<svg width="22" height="20" viewBox="0 0 22 20" fill="none" xmlns="http://www.w3.org/2000/svg">
	<path d="M2 13.5V19.5H0V0.5H9.382C9.56766 0.500099 9.74963 0.551883 9.90753 0.649552C10.0654 0.747222 10.193 0.886919 10.276 1.053L11 2.5H17C17.2652 2.5 17.5196 2.60536 17.7071 2.79289C17.8946 2.98043 18 3.23478 18 3.5V14.5C18 14.7652 17.8946 15.0196 17.7071 15.2071C17.5196 15.3946 17.2652 15.5 17 15.5H10.618C10.4323 15.4999 10.2504 15.4481 10.0925 15.3504C9.93458 15.2528 9.80699 15.1131 9.724 14.947L9 13.5H2ZM2 2.5V11.5H10.236L11.236 13.5H16V4.5H9.764L8.764 2.5H2Z" fill="#333333"/>
	<mask id="path-2-outside-1" maskUnits="userSpaceOnUse" x="12" y="9.5" width="10" height="10" fill="black">
		<rect fill="white" x="12" y="9.5" width="10" height="10"/>
		<path fill-rule="evenodd" clip-rule="evenodd" d="M18 10.5H16V13.5H13V15.5H16V18.5H18V15.5H21V13.5H18V10.5Z"/>
	</mask>
	<path fill-rule="evenodd" clip-rule="evenodd" d="M18 10.5H16V13.5H13V15.5H16V18.5H18V15.5H21V13.5H18V10.5Z" fill="#0069FF"/>
	<path d="M16 10.5V9.5H15V10.5H16ZM18 10.5H19V9.5H18V10.5ZM16 13.5V14.5H17V13.5H16ZM13 13.5V12.5H12V13.5H13ZM13 15.5H12V16.5H13V15.5ZM16 15.5H17V14.5H16V15.5ZM16 18.5H15V19.5H16V18.5ZM18 18.5V19.5H19V18.5H18ZM18 15.5V14.5H17V15.5H18ZM21 15.5V16.5H22V15.5H21ZM21 13.5H22V12.5H21V13.5ZM18 13.5H17V14.5H18V13.5ZM16 11.5H18V9.5H16V11.5ZM17 13.5V10.5H15V13.5H17ZM13 14.5H16V12.5H13V14.5ZM14 15.5V13.5H12V15.5H14ZM16 14.5H13V16.5H16V14.5ZM17 18.5V15.5H15V18.5H17ZM18 17.5H16V19.5H18V17.5ZM17 15.5V18.5H19V15.5H17ZM21 14.5H18V16.5H21V14.5ZM20 13.5V15.5H22V13.5H20ZM18 14.5H21V12.5H18V14.5ZM17 10.5V13.5H19V10.5H17Z" fill="white" mask="url(#path-2-outside-1)"/>
</svg>
