<svg width="21" height="20" viewBox="0 0 21 20" fill="none" xmlns="http://www.w3.org/2000/svg">
	<path d="M14.3735 5.66667H7.57895C6.0714 5.66667 4.6256 6.26871 3.5596 7.34034C2.49361 8.41198 1.89474 9.86543 1.89474 11.381C1.89474 12.8965 2.49361 14.3499 3.5596 15.4216C4.6256 16.4932 6.0714 17.0952 7.57895 17.0952H16.1053V19H7.57895C5.56889 19 3.64115 18.1973 2.21982 16.7684C0.798494 15.3396 0 13.4016 0 11.381C0 9.36025 0.798494 7.42232 2.21982 5.99347C3.64115 4.56462 5.56889 3.7619 7.57895 3.7619H14.3735L11.9709 1.34667L13.3105 0L18 4.71429L13.3105 9.42857L11.9709 8.0819L14.3735 5.66667Z" fill="#333333"/>
	<mask id="path-2-outside-1" maskUnits="userSpaceOnUse" x="11" y="10" width="10" height="10" fill="black">
		<rect fill="white" x="11" y="10" width="10" height="10"/>
		<path fill-rule="evenodd" clip-rule="evenodd" d="M17 11H15V14H12V16H15V19H17V16H20V14H17V11Z"/>
	</mask>
	<path fill-rule="evenodd" clip-rule="evenodd" d="M17 11H15V14H12V16H15V19H17V16H20V14H17V11Z" fill="#0069FF"/>
	<path d="M15 11V10H14V11H15ZM17 11H18V10H17V11ZM15 14V15H16V14H15ZM12 14V13H11V14H12ZM12 16H11V17H12V16ZM15 16H16V15H15V16ZM15 19H14V20H15V19ZM17 19V20H18V19H17ZM17 16V15H16V16H17ZM20 16V17H21V16H20ZM20 14H21V13H20V14ZM17 14H16V15H17V14ZM15 12H17V10H15V12ZM16 14V11H14V14H16ZM12 15H15V13H12V15ZM13 16V14H11V16H13ZM15 15H12V17H15V15ZM16 19V16H14V19H16ZM17 18H15V20H17V18ZM16 16V19H18V16H16ZM20 15H17V17H20V15ZM19 14V16H21V14H19ZM17 15H20V13H17V15ZM16 11V14H18V11H16Z" fill="white" mask="url(#path-2-outside-1)"/>
</svg>
