<svg width="32" height="32" viewBox="0 0 32 32" fill="none" xmlns="http://www.w3.org/2000/svg">
<rect x="0.15" y="0.15" width="31.7" height="31.7" rx="1.85" stroke="#E7E7E7" stroke-width="0.3"/>
<path d="M16.0008 8.57158C18.3498 6.40382 21.9797 6.47577 24.2427 8.80593C26.5046 11.1371 26.5826 14.8498 24.4787 17.2714L15.9988 26L7.52098 17.2714C5.41702 14.8498 5.49602 11.131 7.75697 8.80593C10.0219 6.47885 13.6449 6.40074 16.0008 8.57158ZM22.8267 10.2583C21.3267 8.71445 18.9068 8.65175 17.3368 10.101L16.0018 11.3324L14.6658 10.1021C13.0909 8.65073 10.6759 8.71445 9.17195 10.2604C7.68197 11.7919 7.60698 14.2433 8.97995 15.8632L15.9998 23.0901L23.0197 15.8643C24.3937 14.2433 24.3187 11.795 22.8267 10.2583Z" fill="#333333"/>
<circle cx="21" cy="21" r="5.5" fill="#0069FF" stroke="white"/>
<path d="M24.75 19.409L23.7495 18.5L20.2494 21.6814L18.2498 19.8635L17.25 20.7724L20.2501 23.5L24.75 19.409Z" fill="white"/>
</svg>
