<svg width="17" height="23" viewBox="0 0 17 23" fill="none" xmlns="http://www.w3.org/2000/svg">
<path d="M12.4444 0.558594V2.33637H15.1111C15.6018 2.33637 16 2.73459 16 3.22526V17.4475C16 17.9382 15.6018 18.3364 15.1111 18.3364H0.888889C0.398222 18.3364 0 17.9382 0 17.4475V3.22526C0 2.73459 0.398222 2.33637 0.888889 2.33637H3.55556V0.558594H12.4444ZM3.55556 4.11415H1.77778V16.5586H14.2222V4.11415H12.4444V5.89193H3.55556V4.11415ZM10.6667 2.33637H5.33333V4.11415H10.6667V2.33637Z" fill="#333333"/>
<path d="M10.911 18.8364L10.6208 19.1741L10.3736 19.4618L10.584 19.7774L11.584 21.2773L11.9501 21.8265L12.3796 21.3254L15.3796 17.8254L15.6585 17.5L15.3796 17.1746L12.3796 13.6746L11.9501 13.1735L11.584 13.7226L10.584 15.2226L10.3566 15.5637L10.6464 15.8536L10.8103 16.0174L7.99267 16.0587L7.5 16.0659V16.5586V18.3364V18.8364H8H10.911Z" fill="#0069FF" stroke="white"/>
<path d="M2.66699 10.9696V12.3698H6.78044L7.4031 11.2805L9.4031 14.7808L10.7804 12.3698H12.8059V10.9696H10.0258L9.4031 12.0589L7.4031 8.55859L6.02577 10.9696H2.66699Z" fill="#333333"/>
</svg>
