<svg width="23" height="21" viewBox="0 0 23 21" fill="none" xmlns="http://www.w3.org/2000/svg">
<path d="M10.0008 1.57158C12.3498 -0.59618 15.9797 -0.52423 18.2427 1.80593C20.5046 4.13712 20.5826 7.84976 18.4787 10.2714L9.99882 19L1.52098 10.2714C-0.582983 7.84976 -0.503984 4.13095 1.75697 1.80593C4.02193 -0.521146 7.64486 -0.599264 10.0008 1.57158ZM16.8267 3.2583C15.3267 1.71445 12.9068 1.65175 11.3368 3.10104L10.0018 4.33242L8.66584 3.10207C7.09087 1.65073 4.67592 1.71445 3.17195 3.26036C1.68197 4.79187 1.60698 7.24332 2.97995 8.86323L9.99982 16.0901L17.0197 8.86426C18.3937 7.24332 18.3187 4.79495 16.8267 3.2583Z" fill="#333333"/>
<path d="M19.1464 10.6464L14.5415 15.2514L12.8904 13.1877L12.5415 12.7514L12.1464 13.1464L10.6464 14.6464L10.3157 14.9772L10.6237 15.3293L14.1237 19.3293L14.4756 19.7315L14.8536 19.3536L21.3536 12.8536L21.7071 12.5L21.3536 12.1464L19.8536 10.6464L19.5 10.2929L19.1464 10.6464Z" fill="#0069FF" stroke="white"/>
</svg>
