<svg width="20" height="19" viewBox="0 0 20 19" fill="none" xmlns="http://www.w3.org/2000/svg">
<path d="M10.0008 1.57158C12.3498 -0.59618 15.9797 -0.52423 18.2427 1.80593C20.5046 4.13712 20.5826 7.84976 18.4787 10.2714L9.99882 19L1.52098 10.2714C-0.582983 7.84976 -0.503984 4.13095 1.75697 1.80593C4.02193 -0.521146 7.64486 -0.599264 10.0008 1.57158ZM16.8267 3.2583C15.3267 1.71445 12.9068 1.65175 11.3368 3.10104L10.0018 4.33242L8.66584 3.10207C7.09087 1.65073 4.67592 1.71445 3.17195 3.26036C1.68197 4.79187 1.60698 7.24332 2.97995 8.86323L9.99982 16.0901L17.0197 8.86426C18.3937 7.24332 18.3187 4.79495 16.8267 3.2583Z" fill="#333333"/>
<mask id="path-2-outside-1" maskUnits="userSpaceOnUse" x="8.77344" y="7.77344" width="11" height="11" fill="black">
<rect fill="white" x="8.77344" y="7.77344" width="11" height="11"/>
<path fill-rule="evenodd" clip-rule="evenodd" d="M15.7233 13.3089L17.8445 11.1877L16.4303 9.77344L14.3091 11.8947L12.2573 9.84294L10.8431 11.2572L12.8949 13.3089L10.7734 15.4303L12.1877 16.8445L14.3091 14.7231L16.5 16.914L17.9142 15.4998L15.7233 13.3089Z"/>
</mask>
<path fill-rule="evenodd" clip-rule="evenodd" d="M15.7233 13.3089L17.8445 11.1877L16.4303 9.77344L14.3091 11.8947L12.2573 9.84294L10.8431 11.2572L12.8949 13.3089L10.7734 15.4303L12.1877 16.8445L14.3091 14.7231L16.5 16.914L17.9142 15.4998L15.7233 13.3089Z" fill="#0069FF"/>
<path d="M17.8445 11.1877L18.5516 11.8948L19.2587 11.1877L18.5516 10.4805L17.8445 11.1877ZM15.7233 13.3089L15.0162 12.6018L14.3091 13.3089L15.0162 14.016L15.7233 13.3089ZM16.4303 9.77344L17.1374 9.06633L16.4303 8.35922L15.7232 9.06633L16.4303 9.77344ZM14.3091 11.8947L13.602 12.6018L14.3091 13.3089L15.0162 12.6018L14.3091 11.8947ZM12.2573 9.84294L12.9644 9.13583L12.2573 8.42872L11.5502 9.13583L12.2573 9.84294ZM10.8431 11.2572L10.136 10.55L9.42891 11.2572L10.136 11.9643L10.8431 11.2572ZM12.8949 13.3089L13.602 14.016L14.3091 13.3089L13.602 12.6018L12.8949 13.3089ZM10.7734 15.4303L10.0663 14.7232L9.35922 15.4303L10.0663 16.1374L10.7734 15.4303ZM12.1877 16.8445L11.4805 17.5516L12.1877 18.2587L12.8948 17.5516L12.1877 16.8445ZM14.3091 14.7231L15.0162 14.016L14.3091 13.3089L13.602 14.016L14.3091 14.7231ZM16.5 16.914L15.7929 17.6211L16.5 18.3282L17.2071 17.6211L16.5 16.914ZM17.9142 15.4998L18.6213 16.2069L19.3284 15.4998L18.6213 14.7927L17.9142 15.4998ZM17.1374 10.4805L15.0162 12.6018L16.4304 14.016L18.5516 11.8948L17.1374 10.4805ZM15.7232 10.4805L17.1374 11.8948L18.5516 10.4805L17.1374 9.06633L15.7232 10.4805ZM15.0162 12.6018L17.1374 10.4805L15.7232 9.06633L13.602 11.1876L15.0162 12.6018ZM11.5502 10.55L13.602 12.6018L15.0162 11.1876L12.9644 9.13583L11.5502 10.55ZM11.5502 11.9643L12.9644 10.55L11.5502 9.13583L10.136 10.55L11.5502 11.9643ZM13.602 12.6018L11.5502 10.55L10.136 11.9643L12.1877 14.016L13.602 12.6018ZM11.4805 16.1374L13.602 14.016L12.1877 12.6018L10.0663 14.7232L11.4805 16.1374ZM12.8948 16.1374L11.4805 14.7232L10.0663 16.1374L11.4805 17.5516L12.8948 16.1374ZM13.602 14.016L11.4805 16.1374L12.8948 17.5516L15.0162 15.4302L13.602 14.016ZM17.2071 16.2069L15.0162 14.016L13.602 15.4302L15.7929 17.6211L17.2071 16.2069ZM17.2071 14.7927L15.7929 16.2069L17.2071 17.6211L18.6213 16.2069L17.2071 14.7927ZM15.0162 14.016L17.2071 16.2069L18.6213 14.7927L16.4304 12.6018L15.0162 14.016Z" fill="white" mask="url(#path-2-outside-1)"/>
</svg>
