<?xml version="1.0" encoding="UTF-8" standalone="no"?>
<svg
   xmlns:dc="http://purl.org/dc/elements/1.1/"
   xmlns:cc="http://creativecommons.org/ns#"
   xmlns:rdf="http://www.w3.org/1999/02/22-rdf-syntax-ns#"
   xmlns:svg="http://www.w3.org/2000/svg"
   xmlns="http://www.w3.org/2000/svg"
   xmlns:sodipodi="http://sodipodi.sourceforge.net/DTD/sodipodi-0.dtd"
   xmlns:inkscape="http://www.inkscape.org/namespaces/inkscape"
   width="21.059999"
   height="19.059999"
   viewBox="0 0 21.059999 19.059999"
   fill="none"
   version="1.1"
   id="svg1480"
   sodipodi:docname="concern-resolved.svg"
   inkscape:version="1.0.1 (3bc2e813f5, 2020-09-07)">
  <metadata
     id="metadata1486">
    <rdf:RDF>
      <cc:Work
         rdf:about="">
        <dc:format>image/svg+xml</dc:format>
        <dc:type
           rdf:resource="http://purl.org/dc/dcmitype/StillImage" />
        <dc:title></dc:title>
      </cc:Work>
    </rdf:RDF>
  </metadata>
  <defs
     id="defs1484" />
  <sodipodi:namedview
     pagecolor="#ffffff"
     bordercolor="#666666"
     borderopacity="1"
     objecttolerance="10"
     gridtolerance="10"
     guidetolerance="10"
     inkscape:pageopacity="0"
     inkscape:pageshadow="2"
     inkscape:window-width="1920"
     inkscape:window-height="1122"
     id="namedview1482"
     showgrid="false"
     showguides="true"
     inkscape:guide-bbox="true"
     inkscape:zoom="17.5"
     inkscape:cx="-3.2498294"
     inkscape:cy="9.6954399"
     inkscape:window-x="-8"
     inkscape:window-y="-8"
     inkscape:window-maximized="1"
     inkscape:current-layer="svg1480">
    <sodipodi:guide
       position="4.2857143,1.9428571"
       orientation="0,-1"
       id="guide2049" />
    <sodipodi:guide
       position="21.057143,11.314286"
       orientation="1,0"
       id="guide2051" />
  </sodipodi:namedview>
  <path
     d="m 10.0008,1.57158 c 2.349,-2.16776 5.9789,-2.09581 8.2419,0.23435 2.2619,2.33119 2.3399,6.04383 0.236,8.46547 L 9.99882,19 1.52098,10.2714 C -0.582983,7.84976 -0.503984,4.13095 1.75697,1.80593 4.02193,-0.521146 7.64486,-0.599264 10.0008,1.57158 Z M 16.8267,3.2583 C 15.3267,1.71445 12.9068,1.65175 11.3368,3.10104 L 10.0018,4.33242 8.66584,3.10207 C 7.09087,1.65073 4.67592,1.71445 3.17195,3.26036 1.68197,4.79187 1.60698,7.24332 2.97995,8.86323 L 9.99982,16.0901 17.0197,8.86426 c 1.374,-1.62094 1.299,-4.06931 -0.193,-5.60596 z"
     fill="#333333"
     id="path1476" />
  <path
     d="m 19.1464,10.6464 -4.6049,4.605 -1.6511,-2.0637 -0.3489,-0.4363 -0.3951,0.395 -1.5,1.5 -0.3307,0.3308 0.308,0.3521 3.5,4 0.3519,0.4022 0.378,-0.3779 6.5,-6.5 0.3535,-0.3536 -0.3535,-0.3536 -1.5,-1.5 L 19.5,10.2929 Z"
     fill="#0069ff"
     stroke="#ffffff"
     id="path1478" />
</svg>
