<svg width="15" height="15" viewBox="0 0 15 15" fill="none" xmlns="http://www.w3.org/2000/svg">
<path d="M7.50061 1.17868C9.26233 -0.447135 11.9848 -0.393172 13.682 1.35445C15.3785 3.10284 15.437 5.88732 13.859 7.70355L7.49911 14.25L1.14073 7.70355C-0.437237 5.88732 -0.377988 3.09822 1.31773 1.35445C3.01645 -0.39086 5.73365 -0.449448 7.50061 1.17868ZM12.62 2.44373C11.495 1.28584 9.68007 1.23881 8.50259 2.32578L7.50136 3.24931L6.49938 2.32655C5.31816 1.23804 3.50694 1.28584 2.37896 2.44527C1.26148 3.5939 1.20523 5.43249 2.23496 6.64742L7.49986 12.0676L12.7648 6.64819C13.7952 5.43249 13.739 3.59621 12.62 2.44373Z" fill="#333333"/>
<mask id="path-2-outside-1" maskUnits="userSpaceOnUse" x="6.25732" y="5" width="9" height="9" fill="black">
<rect fill="white" x="6.25732" y="5" width="9" height="9"/>
<path fill-rule="evenodd" clip-rule="evenodd" d="M11.8713 9.74998L13.5606 8.06066L12.5 7L10.8106 8.68932L9.31802 7.1967L8.25736 8.25736L9.74998 9.74998L8.25732 11.2426L9.31798 12.3033L10.8106 10.8106L12.5 12.5L13.5607 11.4393L11.8713 9.74998Z"/>
</mask>
<path fill-rule="evenodd" clip-rule="evenodd" d="M11.8713 9.74998L13.5606 8.06066L12.5 7L10.8106 8.68932L9.31802 7.1967L8.25736 8.25736L9.74998 9.74998L8.25732 11.2426L9.31798 12.3033L10.8106 10.8106L12.5 12.5L13.5607 11.4393L11.8713 9.74998Z" fill="#0069FF"/>
<path d="M13.5606 8.06066L14.2677 8.76777L14.9748 8.06066L14.2677 7.35355L13.5606 8.06066ZM11.8713 9.74998L11.1642 9.04287L10.4571 9.74998L11.1642 10.4571L11.8713 9.74998ZM12.5 7L13.2071 6.29289L12.5 5.58579L11.7929 6.29289L12.5 7ZM10.8106 8.68932L10.1035 9.39643L10.8106 10.1035L11.5178 9.39643L10.8106 8.68932ZM9.31802 7.1967L10.0251 6.48959L9.31802 5.78249L8.61092 6.48959L9.31802 7.1967ZM8.25736 8.25736L7.55026 7.55025L6.84315 8.25736L7.55026 8.96447L8.25736 8.25736ZM9.74998 9.74998L10.4571 10.4571L11.1642 9.74998L10.4571 9.04287L9.74998 9.74998ZM8.25732 11.2426L7.55022 10.5355L6.84311 11.2426L7.55022 11.9497L8.25732 11.2426ZM9.31798 12.3033L8.61088 13.0104L9.31798 13.7175L10.0251 13.0104L9.31798 12.3033ZM10.8106 10.8106L11.5178 10.1035L10.8106 9.39643L10.1035 10.1035L10.8106 10.8106ZM12.5 12.5L11.7929 13.2071L12.5 13.9142L13.2071 13.2071L12.5 12.5ZM13.5607 11.4393L14.2678 12.1464L14.9749 11.4393L14.2678 10.7322L13.5607 11.4393ZM12.8535 7.35355L11.1642 9.04287L12.5784 10.4571L14.2677 8.76777L12.8535 7.35355ZM11.7929 7.70711L12.8535 8.76777L14.2677 7.35355L13.2071 6.29289L11.7929 7.70711ZM11.5178 9.39643L13.2071 7.70711L11.7929 6.29289L10.1035 7.98221L11.5178 9.39643ZM8.61092 7.90381L10.1035 9.39643L11.5178 7.98221L10.0251 6.48959L8.61092 7.90381ZM8.96447 8.96447L10.0251 7.90381L8.61092 6.48959L7.55026 7.55025L8.96447 8.96447ZM10.4571 9.04287L8.96447 7.55025L7.55026 8.96447L9.04288 10.4571L10.4571 9.04287ZM8.96443 11.9497L10.4571 10.4571L9.04288 9.04287L7.55022 10.5355L8.96443 11.9497ZM10.0251 11.5962L8.96443 10.5355L7.55022 11.9497L8.61088 13.0104L10.0251 11.5962ZM10.1035 10.1035L8.61088 11.5962L10.0251 13.0104L11.5178 11.5177L10.1035 10.1035ZM13.2071 11.7929L11.5178 10.1035L10.1035 11.5177L11.7929 13.2071L13.2071 11.7929ZM12.8536 10.7322L11.7929 11.7929L13.2071 13.2071L14.2678 12.1464L12.8536 10.7322ZM11.1642 10.4571L12.8536 12.1464L14.2678 10.7322L12.5784 9.04287L11.1642 10.4571Z" fill="white" mask="url(#path-2-outside-1)"/>
</svg>
