<?xml version="1.0" encoding="UTF-8" standalone="no"?>
<svg
   xmlns:dc="http://purl.org/dc/elements/1.1/"
   xmlns:cc="http://creativecommons.org/ns#"
   xmlns:rdf="http://www.w3.org/1999/02/22-rdf-syntax-ns#"
   xmlns:svg="http://www.w3.org/2000/svg"
   xmlns="http://www.w3.org/2000/svg"
   xmlns:sodipodi="http://sodipodi.sourceforge.net/DTD/sodipodi-0.dtd"
   xmlns:inkscape="http://www.inkscape.org/namespaces/inkscape"
   width="16.02"
   height="20.42"
   viewBox="0 0 16.02 20.42"
   fill="none"
   version="1.1"
   id="svg853"
   sodipodi:docname="concern-promote1.svg"
   inkscape:version="1.0.1 (3bc2e813f5, 2020-09-07)">
  <metadata
     id="metadata859">
    <rdf:RDF>
      <cc:Work
         rdf:about="">
        <dc:format>image/svg+xml</dc:format>
        <dc:type
           rdf:resource="http://purl.org/dc/dcmitype/StillImage" />
        <dc:title></dc:title>
      </cc:Work>
    </rdf:RDF>
  </metadata>
  <defs
     id="defs857" />
  <sodipodi:namedview
     pagecolor="#ffffff"
     bordercolor="#666666"
     borderopacity="1"
     objecttolerance="10"
     gridtolerance="10"
     guidetolerance="10"
     inkscape:pageopacity="0"
     inkscape:pageshadow="2"
     inkscape:window-width="1920"
     inkscape:window-height="1122"
     id="namedview855"
     showgrid="false"
     showguides="true"
     inkscape:guide-bbox="true"
     inkscape:zoom="19.347826"
     inkscape:cx="8.8101791"
     inkscape:cy="13.897564"
     inkscape:window-x="-8"
     inkscape:window-y="-8"
     inkscape:window-maximized="1"
     inkscape:current-layer="svg853">
    <sodipodi:guide
       position="20.260674,-10.797977"
       orientation="0,-1"
       id="guide861" />
    <sodipodi:guide
       position="33.595505,-5.9395504"
       orientation="1,0"
       id="guide863" />
  </sodipodi:namedview>
  <path
     d="m 12.4444,0 v 1.777776 h 2.6667 c 0.4907,0 0.8889,0.39822 0.8889,0.88889 v 14.22224 c 0,0.4907 -0.3982,0.8889 -0.8889,0.8889 H 0.888889 C 0.398222,17.777806 0,17.379606 0,16.888906 V 2.666666 C 0,2.175996 0.398222,1.777776 0.888889,1.777776 H 3.55556 V 0 Z M 3.55556,3.555556 H 1.77778 v 12.44445 H 14.2222 V 3.555556 h -1.7778 v 1.77778 H 3.55556 Z M 10.6667,1.777776 H 5.33333 v 1.77778 h 5.33337 z"
     fill="#333333"
     id="path847" />
  <path
     d="m 10.911,18.277806 -0.2902,0.3377 -0.2472,0.2877 0.2104,0.3156 1,1.4999 0.3661,0.5492 0.4295,-0.5011 3,-3.5 0.2789,-0.3254 -0.2789,-0.3254 -3,-3.5 -0.4295,-0.5011 -0.3661,0.5491 -1,1.5 -0.2274,0.3411 0.2898,0.2899 0.1639,0.1638 -2.81763,0.0413 -0.49267,0.0072 v 0.4927 1.7778 0.5 H 8 Z"
     fill="#0069ff"
     stroke="#ffffff"
     id="path849" />
  <path
     d="m 2.66699,10.411006 v 1.4002 h 4.11345 l 0.62266,-1.0893 2,3.5003 1.3773,-2.411 h 2.0255 v -1.4002 h -2.7801 l -0.6227,1.0893 -2,-3.50031 -1.37733,2.41101 z"
     fill="#333333"
     id="path851" />
</svg>
