<svg width="21" height="21" viewBox="0 0 21 21" fill="none" xmlns="http://www.w3.org/2000/svg">
<path d="M10.3636 0L10.3645 2.64445C11.8864 2.83687 13.3011 3.53006 14.3857 4.61485C15.4704 5.69965 16.1634 7.11442 16.3555 8.63636H19V10.3636L16.3555 10.3645C16.1632 11.8863 15.4701 13.3009 14.3855 14.3855C13.3009 15.4701 11.8863 16.1632 10.3645 16.3555L10.3636 19H8.63636V16.3555C7.11442 16.1634 5.69965 15.4704 4.61485 14.3857C3.53006 13.3011 2.83687 11.8864 2.64445 10.3645L0 10.3636V8.63636H2.64445C2.83669 7.1143 3.5298 5.69943 4.61461 4.61461C5.69943 3.5298 7.1143 2.83669 8.63636 2.64445V0H10.3636ZM9.5 4.31818C8.1257 4.31818 6.80768 4.86412 5.8359 5.8359C4.86412 6.80768 4.31818 8.1257 4.31818 9.5C4.31818 10.8743 4.86412 12.1923 5.8359 13.1641C6.80768 14.1359 8.1257 14.6818 9.5 14.6818C10.8743 14.6818 12.1923 14.1359 13.1641 13.1641C14.1359 12.1923 14.6818 10.8743 14.6818 9.5C14.6818 8.1257 14.1359 6.80768 13.1641 5.8359C12.1923 4.86412 10.8743 4.31818 9.5 4.31818ZM9.5 7.77273C9.9581 7.77273 10.3974 7.95471 10.7214 8.27863C11.0453 8.60256 11.2273 9.0419 11.2273 9.5C11.2273 9.9581 11.0453 10.3974 10.7214 10.7214C10.3974 11.0453 9.9581 11.2273 9.5 11.2273C9.0419 11.2273 8.60256 11.0453 8.27863 10.7214C7.95471 10.3974 7.77273 9.9581 7.77273 9.5C7.77273 9.0419 7.95471 8.60256 8.27863 8.27863C8.60256 7.95471 9.0419 7.77273 9.5 7.77273Z" fill="#333333"/>
<mask id="path-2-outside-1" maskUnits="userSpaceOnUse" x="10.3906" y="10.3594" width="11" height="11" fill="black">
<rect fill="white" x="10.3906" y="10.3594" width="11" height="11"/>
<path fill-rule="evenodd" clip-rule="evenodd" d="M16.2809 11.3594H14.5699V14.5547H11.3906V16.3281H14.5699V19.5H16.2809V16.3281H19.7188V14.5547H16.2809V11.3594Z"/>
</mask>
<path fill-rule="evenodd" clip-rule="evenodd" d="M16.2809 11.3594H14.5699V14.5547H11.3906V16.3281H14.5699V19.5H16.2809V16.3281H19.7188V14.5547H16.2809V11.3594Z" fill="#0069FF"/>
<path d="M14.5699 11.3594V10.3594H13.5699V11.3594H14.5699ZM16.2809 11.3594H17.2809V10.3594H16.2809V11.3594ZM14.5699 14.5547V15.5547H15.5699V14.5547H14.5699ZM11.3906 14.5547V13.5547H10.3906V14.5547H11.3906ZM11.3906 16.3281H10.3906V17.3281H11.3906V16.3281ZM14.5699 16.3281H15.5699V15.3281H14.5699V16.3281ZM14.5699 19.5H13.5699V20.5H14.5699V19.5ZM16.2809 19.5V20.5H17.2809V19.5H16.2809ZM16.2809 16.3281V15.3281H15.2809V16.3281H16.2809ZM19.7188 16.3281V17.3281H20.7188V16.3281H19.7188ZM19.7188 14.5547H20.7188V13.5547H19.7188V14.5547ZM16.2809 14.5547H15.2809V15.5547H16.2809V14.5547ZM14.5699 12.3594H16.2809V10.3594H14.5699V12.3594ZM15.5699 14.5547V11.3594H13.5699V14.5547H15.5699ZM11.3906 15.5547H14.5699V13.5547H11.3906V15.5547ZM12.3906 16.3281V14.5547H10.3906V16.3281H12.3906ZM14.5699 15.3281H11.3906V17.3281H14.5699V15.3281ZM15.5699 19.5V16.3281H13.5699V19.5H15.5699ZM16.2809 18.5H14.5699V20.5H16.2809V18.5ZM15.2809 16.3281V19.5H17.2809V16.3281H15.2809ZM19.7188 15.3281H16.2809V17.3281H19.7188V15.3281ZM18.7188 14.5547V16.3281H20.7188V14.5547H18.7188ZM16.2809 15.5547H19.7188V13.5547H16.2809V15.5547ZM15.2809 11.3594V14.5547H17.2809V11.3594H15.2809Z" fill="white" mask="url(#path-2-outside-1)"/>
<rect x="12" y="12" width="2" height="2" fill="white"/>
</svg>
