<svg width="23" height="20" viewBox="0 0 23 20" fill="none" xmlns="http://www.w3.org/2000/svg">
<path d="M2 13V19H0V0H9.382C9.56766 9.91486e-05 9.74963 0.0518831 9.90753 0.149552C10.0654 0.247222 10.193 0.386919 10.276 0.553L11 2H17C17.2652 2 17.5196 2.10536 17.7071 2.29289C17.8946 2.48043 18 2.73478 18 3V14C18 14.2652 17.8946 14.5196 17.7071 14.7071C17.5196 14.8946 17.2652 15 17 15H10.618C10.4323 14.9999 10.2504 14.9481 10.0925 14.8504C9.93458 14.7528 9.80699 14.6131 9.724 14.447L9 13H2ZM2 2V11H10.236L11.236 13H16V4H9.764L8.764 2H2Z" fill="#333333"/>
<mask id="path-2-outside-1" maskUnits="userSpaceOnUse" x="11" y="8" width="12" height="12" fill="black">
<rect fill="white" x="11" y="8" width="12" height="12"/>
<path fill-rule="evenodd" clip-rule="evenodd" d="M18.5454 13.9609L20.9219 11.5844L19.3375 10L16.961 12.3765L14.6625 10.078L13.0781 11.6624L15.3766 13.9609L13 16.3375L14.5844 17.9219L16.961 15.5453L19.4156 17.9999L21 16.4155L18.5454 13.9609Z"/>
</mask>
<path fill-rule="evenodd" clip-rule="evenodd" d="M18.5454 13.9609L20.9219 11.5844L19.3375 10L16.961 12.3765L14.6625 10.078L13.0781 11.6624L15.3766 13.9609L13 16.3375L14.5844 17.9219L16.961 15.5453L19.4156 17.9999L21 16.4155L18.5454 13.9609Z" fill="#0069FF"/>
<path d="M20.9219 11.5844L21.629 12.2915L22.3361 11.5844L21.629 10.8773L20.9219 11.5844ZM18.5454 13.9609L17.8383 13.2538L17.1312 13.9609L17.8383 14.668L18.5454 13.9609ZM19.3375 10L20.0446 9.29289L19.3375 8.58579L18.6304 9.29289L19.3375 10ZM16.961 12.3765L16.2539 13.0836L16.961 13.7907L17.6681 13.0836L16.961 12.3765ZM14.6625 10.078L15.3696 9.37089L14.6625 8.66378L13.9554 9.37089L14.6625 10.078ZM13.0781 11.6624L12.371 10.9553L11.6639 11.6624L12.371 12.3695L13.0781 11.6624ZM15.3766 13.9609L16.0837 14.668L16.7908 13.9609L16.0837 13.2538L15.3766 13.9609ZM13 16.3375L12.2929 15.6304L11.5858 16.3375L12.2929 17.0446L13 16.3375ZM14.5844 17.9219L13.8773 18.629L14.5844 19.3361L15.2915 18.629L14.5844 17.9219ZM16.961 15.5453L17.6681 14.8382L16.961 14.1311L16.2539 14.8382L16.961 15.5453ZM19.4156 17.9999L18.7085 18.707L19.4156 19.4141L20.1227 18.707L19.4156 17.9999ZM21 16.4155L21.7071 17.1226L22.4142 16.4155L21.7071 15.7084L21 16.4155ZM20.2148 10.8773L17.8383 13.2538L19.2525 14.668L21.629 12.2915L20.2148 10.8773ZM18.6304 10.7071L20.2148 12.2915L21.629 10.8773L20.0446 9.29289L18.6304 10.7071ZM17.6681 13.0836L20.0446 10.7071L18.6304 9.29289L16.2539 11.6694L17.6681 13.0836ZM13.9554 10.7851L16.2539 13.0836L17.6681 11.6694L15.3696 9.37089L13.9554 10.7851ZM13.7852 12.3695L15.3696 10.7851L13.9554 9.37089L12.371 10.9553L13.7852 12.3695ZM16.0837 13.2538L13.7852 10.9553L12.371 12.3695L14.6695 14.668L16.0837 13.2538ZM13.7071 17.0446L16.0837 14.668L14.6695 13.2538L12.2929 15.6304L13.7071 17.0446ZM15.2915 17.2148L13.7071 15.6304L12.2929 17.0446L13.8773 18.629L15.2915 17.2148ZM16.2539 14.8382L13.8773 17.2148L15.2915 18.629L17.6681 16.2524L16.2539 14.8382ZM20.1227 17.2928L17.6681 14.8382L16.2539 16.2524L18.7085 18.707L20.1227 17.2928ZM20.2929 15.7084L18.7085 17.2928L20.1227 18.707L21.7071 17.1226L20.2929 15.7084ZM17.8383 14.668L20.2929 17.1226L21.7071 15.7084L19.2525 13.2538L17.8383 14.668Z" fill="white" mask="url(#path-2-outside-1)"/>
</svg>
