<svg width="12" height="12" viewBox="0 0 12 12" fill="none" xmlns="http://www.w3.org/2000/svg">
<path fill-rule="evenodd" clip-rule="evenodd" d="M0 6C0 2.7 2.7 0 6 0C9.3 0 12 2.7 12 6C12 9.3 9.3 12 6 12C2.7 12 0 9.3 0 6ZM6.59996 8.99941H5.39996V5.39941H6.59996V8.99941ZM5.99998 10.7997C3.35998 10.7997 1.19998 8.63971 1.19998 5.99971C1.19998 3.35971 3.35998 1.19971 5.99998 1.19971C8.63998 1.19971 10.8 3.35971 10.8 5.99971C10.8 8.63971 8.63998 10.7997 5.99998 10.7997ZM6.59996 4.2H5.39996V3H6.59996V4.2Z" fill="#858585"/>
</svg>
