<svg width="23" height="22" viewBox="0 0 23 22" fill="none" xmlns="http://www.w3.org/2000/svg">
	<path d="M14 0V2H17C17.552 2 18 2.448 18 3V19C18 19.552 17.552 20 17 20H1C0.448 20 0 19.552 0 19V3C0 2.448 0.448 2 1 2H4V0H14ZM4 4H2V18H16V4H14V6H4V4ZM12 2H6V4H12V2Z" fill="#333333"/>
	<path d="M18.6037 10.1951L14.0511 16.1134L12.9287 14.2427L12.4876 13.5075L12.065 14.2535L10.8721 16.3588L10.706 16.652L10.9154 16.916L13.6082 20.3107L13.9828 20.783L14.3777 20.3275L21.1947 12.4653L21.5159 12.0947L21.1517 11.7664L19.3348 10.1286L18.9333 9.76666L18.6037 10.1951Z" fill="#0069FF" stroke="white"/>
	<path d="M3 11.7124V13.2876H7.62762L8.32812 12.0621L10.5781 16L12.1276 13.2876H14.4062V11.7124H11.2786L10.5781 12.9379L8.32812 9L6.77863 11.7124H3Z" fill="#333333"/>
</svg>
