<svg width="28" height="28" viewBox="0 0 28 28" fill="none" xmlns="http://www.w3.org/2000/svg">
<path d="M14 28C21.732 28 28 21.732 28 14C28 6.26801 21.732 0 14 0C6.26801 0 0 6.26801 0 14C0 21.732 6.26801 28 14 28Z" fill="#F1A0AA"/>
<path d="M14.3158 15.2036V16.4974C13.7442 16.2993 13.1324 16.2386 12.5318 16.3202C11.9313 16.4019 11.3595 16.6236 10.8645 16.9668C10.3695 17.3099 9.96569 17.7645 9.68705 18.2923C9.40841 18.8201 9.26304 19.4057 9.26316 20L8 19.9994C7.9998 19.2435 8.17616 18.4975 8.51556 17.8187C8.85495 17.1399 9.34838 16.5463 9.95803 16.0833C10.5677 15.6203 11.2774 15.3003 12.0327 15.1477C12.7881 14.9951 13.569 15.014 14.3158 15.203V15.2036ZM13.0526 14.4286C10.9589 14.4286 9.26316 12.7664 9.26316 10.7143C9.26316 8.66214 10.9589 7 13.0526 7C15.1463 7 16.8421 8.66214 16.8421 10.7143C16.8421 12.7664 15.1463 14.4286 13.0526 14.4286ZM13.0526 13.1905C14.4484 13.1905 15.5789 12.0824 15.5789 10.7143C15.5789 9.34619 14.4484 8.2381 13.0526 8.2381C11.6568 8.2381 10.5263 9.34619 10.5263 10.7143C10.5263 12.0824 11.6568 13.1905 13.0526 13.1905ZM16.8421 16.9048V15.0476H18.1053V16.9048H20V18.1429H18.1053V20H16.8421V18.1429H14.9474V16.9048H16.8421Z" fill="white"/>
</svg>
