<svg width="13" height="14" viewBox="0 0 13 14" fill="none" xmlns="http://www.w3.org/2000/svg">
<path d="M6.84211 8.83467V10.228C6.22284 10.0147 5.56008 9.94924 4.90949 10.0372C4.25889 10.1251 3.63945 10.3639 3.10319 10.7335C2.56693 11.103 2.1295 11.5925 1.82764 12.1609C1.52578 12.7293 1.3683 13.36 1.36842 14L1.76839e-07 13.9993C-0.000212183 13.1853 0.190841 12.3819 0.55852 11.6509C0.9262 10.9199 1.46075 10.2806 2.1212 9.78202C2.78166 9.28342 3.55049 8.93876 4.36879 8.77443C5.18709 8.6101 6.03314 8.63048 6.84211 8.834V8.83467ZM5.47368 8C3.20553 8 1.36842 6.21 1.36842 4C1.36842 1.79 3.20553 0 5.47368 0C7.74184 0 9.57895 1.79 9.57895 4C9.57895 6.21 7.74184 8 5.47368 8ZM5.47368 6.66667C6.98579 6.66667 8.21053 5.47333 8.21053 4C8.21053 2.52667 6.98579 1.33333 5.47368 1.33333C3.96158 1.33333 2.73684 2.52667 2.73684 4C2.73684 5.47333 3.96158 6.66667 5.47368 6.66667ZM9.57895 10.6667V8.66667H10.9474V10.6667H13V12H10.9474V14H9.57895V12H7.52632V10.6667H9.57895Z" fill="white"/>
</svg>
