<svg width="13" height="14" viewBox="0 0 13 14" fill="none" xmlns="http://www.w3.org/2000/svg">
<path d="M6.43885 8.53277V9.87849C5.85609 9.67245 5.23239 9.60925 4.62014 9.6942C4.00789 9.77915 3.42495 10.0098 2.9203 10.3667C2.41564 10.7236 2.00399 11.1964 1.71992 11.7454C1.43585 12.2944 1.28765 12.9035 1.28777 13.5216L1.66416e-07 13.5209C-0.000199678 12.7347 0.179593 11.9588 0.525603 11.2528C0.871612 10.5468 1.37465 9.92931 1.99618 9.44775C2.61771 8.96619 3.34123 8.6333 4.11131 8.47459C4.88138 8.31588 5.67756 8.33556 6.43885 8.53213V8.53277ZM5.15108 7.72662C3.0166 7.72662 1.28777 5.99779 1.28777 3.86331C1.28777 1.72883 3.0166 0 5.15108 0C7.28556 0 9.01439 1.72883 9.01439 3.86331C9.01439 5.99779 7.28556 7.72662 5.15108 7.72662ZM5.15108 6.43885C6.57407 6.43885 7.72662 5.2863 7.72662 3.86331C7.72662 2.44033 6.57407 1.28777 5.15108 1.28777C3.7281 1.28777 2.57554 2.44033 2.57554 3.86331C2.57554 5.2863 3.7281 6.43885 5.15108 6.43885ZM8.88111 12.1784L11.1572 9.90231L12.0683 10.8128L8.88111 14L6.60433 11.7232L7.51543 10.8128L8.88047 12.1784H8.88111Z" fill="white"/>
</svg>
