<svg width="28" height="28" viewBox="0 0 28 28" fill="none" xmlns="http://www.w3.org/2000/svg">
<path d="M14 28C21.732 28 28 21.732 28 14C28 6.26801 21.732 0 14 0C6.26801 0 0 6.26801 0 14C0 21.732 6.26801 28 14 28Z" fill="#3EA4DC"/>
<path d="M14.4024 15.5328V16.8785C13.8229 16.6725 13.2028 16.6093 12.594 16.6942C11.9852 16.7792 11.4056 17.0098 10.9038 17.3667C10.402 17.7236 9.99264 18.1964 9.71018 18.7454C9.42772 19.2944 9.28036 19.9035 9.28048 20.5216L8 20.5209C7.9998 19.7347 8.17858 18.9588 8.52263 18.2528C8.86668 17.5468 9.36687 16.9293 9.98488 16.4478C10.6029 15.9662 11.3223 15.6333 12.088 15.4746C12.8537 15.3159 13.6454 15.3356 14.4024 15.5321V15.5328ZM13.1219 14.7266C10.9995 14.7266 9.28048 12.9978 9.28048 10.8633C9.28048 8.72883 10.9995 7 13.1219 7C15.2443 7 16.9633 8.72883 16.9633 10.8633C16.9633 12.9978 15.2443 14.7266 13.1219 14.7266ZM13.1219 13.4389C14.5368 13.4389 15.6829 12.2863 15.6829 10.8633C15.6829 9.44033 14.5368 8.28777 13.1219 8.28777C11.707 8.28777 10.561 9.44033 10.561 10.8633C10.561 12.2863 11.707 13.4389 13.1219 13.4389ZM16.8308 19.1784L19.0941 16.9023L20 17.8128L16.8308 21L14.5669 18.7232L15.4729 17.8128L16.8302 19.1784H16.8308Z" fill="white"/>
</svg>
