<svg width="28" height="28" viewBox="0 0 28 28" fill="none" xmlns="http://www.w3.org/2000/svg">
<path d="M14 28C21.732 28 28 21.732 28 14C28 6.26801 21.732 0 14 0C6.26801 0 0 6.26801 0 14C0 21.732 6.26801 28 14 28Z" fill="#BAA2CD"/>
<path d="M13.2182 15.4651V16.7674C12.1803 16.7674 11.1848 17.1791 10.4509 17.9118C9.71689 18.6445 9.30456 19.6382 9.30456 20.6744H8C8 19.2928 8.54978 17.9678 9.52839 16.9909C10.507 16.014 11.8343 15.4651 13.2182 15.4651ZM13.2182 14.814C11.0559 14.814 9.30456 13.0656 9.30456 10.907C9.30456 8.74837 11.0559 7 13.2182 7C15.3806 7 17.1319 8.74837 17.1319 10.907C17.1319 13.0656 15.3806 14.814 13.2182 14.814ZM13.2182 13.5116C14.6598 13.5116 15.8274 12.346 15.8274 10.907C15.8274 9.46791 14.6598 8.30233 13.2182 8.30233C11.7767 8.30233 10.6091 9.46791 10.6091 10.907C10.6091 12.346 11.7767 13.5116 13.2182 13.5116ZM14.9109 18.5985C14.8282 18.2511 14.8282 17.8891 14.9109 17.5417L14.2638 17.1686L14.9161 16.0407L15.5632 16.4139C15.8229 16.1683 16.1368 15.9872 16.4796 15.8851V15.1395H17.7842V15.8851C18.1312 15.988 18.4443 16.1716 18.7007 16.4139L19.3477 16.0407L20 17.1686L19.3529 17.5417C19.4355 17.8889 19.4355 18.2506 19.3529 18.5979L20 18.971L19.3477 20.0988L18.7007 19.7257C18.4409 19.9712 18.127 20.1524 17.7842 20.2544V21H16.4796V20.2544C16.1368 20.1524 15.8229 19.9712 15.5632 19.7257L14.9161 20.0988L14.2638 18.971L14.9109 18.5985ZM17.1319 19.0465C17.3914 19.0465 17.6403 18.9436 17.8238 18.7604C18.0073 18.5773 18.1103 18.3288 18.1103 18.0698C18.1103 17.8107 18.0073 17.5623 17.8238 17.3791C17.6403 17.1959 17.3914 17.093 17.1319 17.093C16.8724 17.093 16.6236 17.1959 16.4401 17.3791C16.2566 17.5623 16.1535 17.8107 16.1535 18.0698C16.1535 18.3288 16.2566 18.5773 16.4401 18.7604C16.6236 18.9436 16.8724 19.0465 17.1319 19.0465Z" fill="white"/>
</svg>
