<svg width="28" height="28" viewBox="0 0 28 28" fill="none" xmlns="http://www.w3.org/2000/svg">
<path d="M14 28C21.732 28 28 21.732 28 14C28 6.26801 21.732 0 14 0C6.26801 0 0 6.26801 0 14C0 21.732 6.26801 28 14 28Z" fill="#FFC35F"/>
<path d="M13.9099 14.8764V16.1186C13.375 15.9284 12.8025 15.8701 12.2406 15.9485C11.6786 16.0269 11.1436 16.2398 10.6804 16.5692C10.2172 16.8987 9.83936 17.3351 9.57863 17.8419C9.3179 18.3486 9.18187 18.9109 9.18198 19.4815L8 19.4809C7.99982 18.7551 8.16484 18.0389 8.48242 17.3872C8.80001 16.7355 9.26173 16.1655 9.8322 15.721C10.4027 15.2765 11.0668 14.9692 11.7736 14.8227C12.4804 14.6762 13.2111 14.6944 13.9099 14.8758V14.8764ZM12.7279 14.1323C10.7688 14.1323 9.18198 12.5364 9.18198 10.5661C9.18198 8.59584 10.7688 7 12.7279 7C14.6871 7 16.2739 8.59584 16.2739 10.5661C16.2739 12.5364 14.6871 14.1323 12.7279 14.1323ZM12.7279 12.9436C14.034 12.9436 15.0919 11.8797 15.0919 10.5661C15.0919 9.25261 14.034 8.18871 12.7279 8.18871C11.4218 8.18871 10.364 9.25261 10.364 10.5661C10.364 11.8797 11.4218 12.9436 12.7279 12.9436ZM16.1515 18.2416L18.2407 16.1406L19.0769 16.981L16.1515 19.9231L14.0618 17.8214L14.898 16.981L16.1509 18.2416H16.1515Z" fill="white"/>
<path d="M13.5381 19.3076C13.5381 17.0985 15.3289 15.3076 17.5381 15.3076H19.9996V19.923H13.5381V19.3076Z" fill="#FFC35F"/>
<path d="M17.6278 17.1025H18.8927L17.2311 18.641L15.5696 17.1025H16.8201V15.3076H17.6927L17.6278 17.1025ZM15.147 19.3317H19.3297V17.6153H20.0004V19.6666C20.0004 19.7346 19.9712 19.7998 19.9193 19.8479C19.8673 19.896 19.7969 19.923 19.7235 19.923H14.7388C14.6654 19.923 14.595 19.896 14.543 19.8479C14.4911 19.7998 14.4619 19.7346 14.4619 19.6666V17.6153H15.147V19.3317Z" fill="white"/>
</svg>
