<svg width="12" height="14" viewBox="0 0 12 14" fill="none" xmlns="http://www.w3.org/2000/svg">
<path d="M6.40239 8.53277V9.87849C5.82292 9.67245 5.20276 9.60925 4.59397 9.6942C3.98519 9.77915 3.40556 10.0098 2.90376 10.3667C2.40196 10.7236 1.99264 11.1964 1.71018 11.7454C1.42772 12.2944 1.28036 12.9035 1.28048 13.5216L1.65474e-07 13.5209C-0.000198547 12.7347 0.178576 11.9588 0.522626 11.2528C0.866676 10.5468 1.36687 9.92931 1.98488 9.44775C2.60289 8.96619 3.32231 8.6333 4.08802 8.47459C4.85374 8.31588 5.64541 8.33556 6.40239 8.53213V8.53277ZM5.12191 7.72662C2.99952 7.72662 1.28048 5.99779 1.28048 3.86331C1.28048 1.72883 2.99952 0 5.12191 0C7.2443 0 8.96335 1.72883 8.96335 3.86331C8.96335 5.99779 7.2443 7.72662 5.12191 7.72662ZM5.12191 6.43885C6.53684 6.43885 7.68287 5.2863 7.68287 3.86331C7.68287 2.44033 6.53684 1.28777 5.12191 1.28777C3.70698 1.28777 2.56096 2.44033 2.56096 3.86331C2.56096 5.2863 3.70698 6.43885 5.12191 6.43885ZM8.83082 12.1784L11.0941 9.90231L12 10.8128L8.83082 14L6.56693 11.7232L7.47287 10.8128L8.83018 12.1784H8.83082Z" fill="white"/>
</svg>
