<svg width="20" height="20" viewBox="0 0 20 20" fill="none" xmlns="http://www.w3.org/2000/svg">
<circle cx="10" cy="10" r="10" fill="#3EA4DC"/>
<path d="M14.0929 9.9214L8.4768 13.1988L9.48601 9.92516L8.21573 7.13656L14.0929 9.9214ZM15.8203 9.62538L6.77846 5.3401C6.73172 5.31785 6.67931 5.3105 6.62833 5.31903C6.57734 5.32756 6.53025 5.35157 6.49343 5.38779C6.45661 5.42402 6.43185 5.47071 6.4225 5.52155C6.41315 5.57238 6.41966 5.6249 6.44116 5.67198L8.40929 9.99196L6.94028 14.757C6.92531 14.8055 6.92536 14.8575 6.94041 14.906C6.95547 14.9546 6.98483 14.9975 7.02465 15.0291C7.06447 15.0608 7.11289 15.0797 7.16358 15.0833C7.21426 15.087 7.26483 15.0753 7.30867 15.0497L15.8405 10.0708C15.8801 10.0476 15.9126 10.0141 15.9345 9.97377C15.9564 9.93346 15.9668 9.8879 15.9647 9.84202C15.9626 9.79614 15.948 9.75168 15.9225 9.71344C15.8969 9.6752 15.8615 9.64463 15.8199 9.62503L15.8203 9.62538Z" fill="white"/>
</svg>
