<svg width="20" height="19" viewBox="0 0 20 19" fill="none" xmlns="http://www.w3.org/2000/svg">
<path fill-rule="evenodd" clip-rule="evenodd" d="M19.486 2.8125C20.1713 2.16991 20.1713 1.12446 19.486 0.481912C18.8006 -0.160637 17.6854 -0.160637 17.0001 0.481912C16.796 0.673256 16.6532 0.900415 16.5706 1.14189C14.5364 0.0724177 11.9651 0.244279 10.0988 1.67593L4.27705 6.26584C4.24015 6.23972 4.12486 6.19441 4.03593 6.15946L4.03592 6.15945C3.98995 6.14138 3.95102 6.12608 3.93361 6.11764C2.79564 5.56536 1.42197 5.76538 0.515288 6.61539C-0.171704 7.25947 -0.171821 8.30185 0.515288 8.94594L3.45689 11.7037C2.70892 12.7597 2.81853 14.2126 3.82986 15.1607C4.84037 16.1081 6.39005 16.2121 7.5174 15.5104L10.459 18.2681C11.1444 18.9106 12.2595 18.9106 12.9449 18.2681C13.8516 17.4181 14.065 16.1302 13.4758 15.0634C13.4668 15.0471 13.4505 15.0106 13.4312 14.9675L13.4312 14.9674C13.3939 14.8841 13.3456 14.7761 13.3178 14.7415L18.2142 9.28047C19.7505 7.5201 19.9138 5.10716 18.782 3.21511C19.0396 3.13773 19.2819 3.00384 19.486 2.8125ZM4.65901 14.3833C4.11104 13.8696 4.0067 13.1116 4.31522 12.5073L6.6601 14.7056C6.01795 14.9938 5.20889 14.8988 4.65901 14.3833ZM11.2882 17.4917C11.5166 17.7059 11.8883 17.7059 12.1168 17.4917C12.6609 16.9816 12.7891 16.209 12.4357 15.569C12.4001 15.5047 12.1142 15.1587 12.1142 15.1587L12.1133 15.158L3.83379 7.39605L3.83301 7.39531C3.83301 7.39531 3.46403 7.12725 3.39528 7.09385C3.13832 6.96912 2.86114 6.90837 2.58649 6.90837C2.13172 6.90837 1.68371 7.07477 1.34446 7.39282C1.11543 7.60753 1.11543 7.95492 1.34446 8.16966L11.2882 17.4917ZM17.3091 8.58169L12.4894 13.9556L5.11434 7.04149L10.8432 2.52358C12.6775 1.11658 15.3244 1.24039 17.0003 2.81146C18.6761 4.38257 18.8081 6.8641 17.3091 8.58169ZM17.8288 1.25966C17.5998 1.47437 17.5998 1.82176 17.8288 2.0365C18.0579 2.25117 18.4285 2.25117 18.6575 2.0365C18.8864 1.82176 18.8865 1.47437 18.6575 1.25966C18.4284 1.04496 18.0579 1.04496 17.8288 1.25966Z" fill="#858585"/>
<path fill-rule="evenodd" clip-rule="evenodd" d="M16.3689 3.92434C16.1496 3.69187 15.7937 3.69191 15.5743 3.92434C15.3548 4.15686 15.3548 4.53381 15.5743 4.76633C16.3615 5.60042 16.4234 6.91768 15.7183 7.83052L14.794 9.02759C14.5975 9.2821 14.6329 9.65719 14.8731 9.86541C15.1134 10.0736 15.4673 10.0361 15.6639 9.78158L16.5881 8.58459C17.6604 7.19636 17.5662 5.19294 16.3689 3.92434Z" fill="#858585"/>
</svg>
