<svg width="20" height="20" viewBox="0 0 20 20" fill="none" xmlns="http://www.w3.org/2000/svg">
<circle cx="10" cy="10" r="10" fill="#3EA4DC"/>
<path d="M14.0938 9.9214L8.47777 13.1988L9.48699 9.92516L8.21671 7.13656L14.0938 9.9214ZM15.8212 9.62538L6.77943 5.3401C6.7327 5.31785 6.68029 5.3105 6.6293 5.31903C6.57832 5.32756 6.53122 5.35157 6.49441 5.38779C6.45759 5.42402 6.43283 5.47071 6.42348 5.52155C6.41413 5.57238 6.42064 5.6249 6.44214 5.67198L8.41027 9.99196L6.94126 14.757C6.92629 14.8055 6.92633 14.8575 6.94139 14.906C6.95644 14.9546 6.9858 14.9975 7.02563 15.0291C7.06545 15.0608 7.11387 15.0797 7.16455 15.0833C7.21523 15.087 7.26581 15.0753 7.30965 15.0497L15.8414 10.0708C15.8811 10.0476 15.9136 10.0141 15.9355 9.97377C15.9574 9.93346 15.9678 9.8879 15.9657 9.84202C15.9636 9.79614 15.949 9.75168 15.9234 9.71344C15.8979 9.6752 15.8625 9.64463 15.8209 9.62503L15.8212 9.62538Z" fill="white"/>
</svg>
